<svg xmlns="http://www.w3.org/2000/svg" viewBox="0 0 128 128">
  <defs>
    <linearGradient id="metal" x1="18" y1="12" x2="112" y2="118">
      <stop offset="0" stop-color="#e4ddcb"/>
      <stop offset=".28" stop-color="#8d9394"/>
      <stop offset=".64" stop-color="#3e4548"/>
      <stop offset="1" stop-color="#231010"/>
    </linearGradient>
    <radialGradient id="shine" cx="36%" cy="24%" r="72%">
      <stop offset="0" stop-color="#ffffff" stop-opacity=".34"/>
      <stop offset=".52" stop-color="#ffffff" stop-opacity=".04"/>
      <stop offset="1" stop-color="#000000" stop-opacity=".48"/>
    </radialGradient>
    <filter id="drop">
      <feDropShadow dx="0" dy="7" stdDeviation="5" flood-color="#000000" flood-opacity=".72"/>
      <feDropShadow dx="0" dy="0" stdDeviation="4" flood-color="#b43c34" flood-opacity=".35"/>
    </filter>
  </defs>
  <rect x="8" y="8" width="112" height="112" rx="22" fill="#120909" filter="url(#drop)"/>
  <rect x="13" y="12" width="102" height="102" rx="18" fill="url(#metal)" stroke="#2c1110" stroke-width="6"/>
  <rect x="17" y="16" width="94" height="94" rx="15" fill="none" stroke="#c45648" stroke-width="3" opacity=".85"/>
  <path d="M25 31 44 24M82 18l20 10M19 84l22 21M88 109l20-17M42 70l21-35M66 95l36-43M31 55l-9-18M99 74l10 17"
        stroke="#8f2e28" stroke-width="4" stroke-linecap="round" opacity=".5"/>
  <path d="M28 29 40 25M86 23l12 6M25 88l13 12M92 103l12-10"
        stroke="#f0c0a0" stroke-width="2" stroke-linecap="round" opacity=".26"/>
  <rect x="22" y="21" width="84" height="84" rx="12" fill="url(#shine)"/>
</svg>
