<svg xmlns="http://www.w3.org/2000/svg" viewBox="0 0 128 128">
  <defs><linearGradient id="g" x1="18" y1="12" x2="112" y2="118"><stop offset="0" stop-color="#d8d1c0"/><stop offset=".38" stop-color="#777b7c"/><stop offset=".72" stop-color="#3d4144"/><stop offset="1" stop-color="#2a1110"/></linearGradient><radialGradient id="r" cx="38%" cy="24%" r="78%"><stop offset="0" stop-color="#ffffff" stop-opacity=".26"/><stop offset=".55" stop-color="#000000" stop-opacity="0"/><stop offset="1" stop-color="#000000" stop-opacity=".48"/></radialGradient><filter id="s"><feDropShadow dx="0" dy="5" stdDeviation="4" flood-color="#000" flood-opacity=".65"/></filter></defs>
  <rect x="10" y="10" width="108" height="108" rx="20" fill="#1a0d0d" filter="url(#s)"/>
  <rect x="14" y="12" width="100" height="100" rx="17" fill="url(#g)" stroke="#b84336" stroke-width="5"/>
  <path d="M25 28 42 22M78 18l17 8M20 82l18 18M88 106l20-14M43 67l18-30M66 92l34-42" stroke="#8f2e28" stroke-width="4" stroke-linecap="round" opacity=".56"/>
  <rect x="22" y="21" width="84" height="84" rx="12" fill="url(#r)"/>
  <circle cx="42" cy="38" r="8.2" fill="#1b0908" stroke="#f0d2b8" stroke-width="2.4"/>
  <circle cx="86" cy="38" r="8.2" fill="#1b0908" stroke="#f0d2b8" stroke-width="2.4"/>
  <circle cx="42" cy="64" r="8.2" fill="#1b0908" stroke="#f0d2b8" stroke-width="2.4"/>
  <circle cx="86" cy="64" r="8.2" fill="#1b0908" stroke="#f0d2b8" stroke-width="2.4"/>
  <circle cx="42" cy="90" r="8.2" fill="#1b0908" stroke="#f0d2b8" stroke-width="2.4"/>
  <circle cx="86" cy="90" r="8.2" fill="#1b0908" stroke="#f0d2b8" stroke-width="2.4"/>
</svg>
